<mxfile host="app.diagrams.net" modified="2023-05-29T04:06:33.257Z" agent="Mozilla/5.0 (Windows NT 10.0; Win64; x64) AppleWebKit/537.36 (KHTML, like Gecko) Chrome/113.0.0.0 Safari/537.36" etag="hpXBZG_GVafEXXoq8-g-" version="21.3.4" type="device">
  <diagram name="Page-1" id="ZUB6P5DmgsFVY-Me3-Dx">
    <mxGraphModel dx="3134" dy="796" grid="1" gridSize="10" guides="1" tooltips="1" connect="1" arrows="1" fold="1" page="1" pageScale="1" pageWidth="850" pageHeight="1100" math="0" shadow="0">
      <root>
        <mxCell id="0" />
        <mxCell id="1" parent="0" />
        <mxCell id="lZczdP_Lf2VxQvJHOiX0-6" value="Users" style="swimlane;" vertex="1" parent="1">
          <mxGeometry x="-810" y="100" width="100" height="170" as="geometry" />
        </mxCell>
        <mxCell id="lZczdP_Lf2VxQvJHOiX0-12" value="user_id&lt;br&gt;firstName&lt;br&gt;lastName&lt;br&gt;email&lt;br&gt;password&lt;br&gt;phone&lt;br&gt;adress&lt;br&gt;image" style="text;html=1;strokeColor=none;fillColor=none;align=left;verticalAlign=top;whiteSpace=wrap;rounded=0;" vertex="1" parent="lZczdP_Lf2VxQvJHOiX0-6">
          <mxGeometry y="30" width="80" height="130" as="geometry" />
        </mxCell>
        <mxCell id="lZczdP_Lf2VxQvJHOiX0-13" value="Cars" style="swimlane;" vertex="1" parent="1">
          <mxGeometry x="-375" y="250" width="100" height="140" as="geometry" />
        </mxCell>
        <mxCell id="lZczdP_Lf2VxQvJHOiX0-14" value="car_id&lt;br&gt;model_id&lt;br&gt;rent_place_id&lt;br&gt;image&lt;br&gt;category_id" style="text;html=1;strokeColor=none;fillColor=none;align=left;verticalAlign=top;whiteSpace=wrap;rounded=0;" vertex="1" parent="lZczdP_Lf2VxQvJHOiX0-13">
          <mxGeometry y="30" width="100" height="80" as="geometry" />
        </mxCell>
        <mxCell id="lZczdP_Lf2VxQvJHOiX0-15" value="Manufacturers" style="swimlane;" vertex="1" parent="1">
          <mxGeometry x="-340" y="40" width="110" height="100" as="geometry" />
        </mxCell>
        <mxCell id="lZczdP_Lf2VxQvJHOiX0-16" value="manufacturer_id&lt;br&gt;manufacturer_name" style="text;html=1;strokeColor=none;fillColor=none;align=left;verticalAlign=top;whiteSpace=wrap;rounded=0;" vertex="1" parent="lZczdP_Lf2VxQvJHOiX0-15">
          <mxGeometry y="25" width="110" height="55" as="geometry" />
        </mxCell>
        <mxCell id="lZczdP_Lf2VxQvJHOiX0-17" value="Models" style="swimlane;" vertex="1" parent="1">
          <mxGeometry x="-170" y="110" width="100" height="95" as="geometry" />
        </mxCell>
        <mxCell id="lZczdP_Lf2VxQvJHOiX0-18" value="model_id&lt;br&gt;model_name&lt;br&gt;manufacturer_id" style="text;html=1;strokeColor=none;fillColor=none;align=left;verticalAlign=top;whiteSpace=wrap;rounded=0;" vertex="1" parent="lZczdP_Lf2VxQvJHOiX0-17">
          <mxGeometry x="10" y="30" width="80" height="50" as="geometry" />
        </mxCell>
        <mxCell id="lZczdP_Lf2VxQvJHOiX0-32" value="" style="edgeStyle=entityRelationEdgeStyle;fontSize=12;html=1;endArrow=ERoneToMany;rounded=0;exitX=1;exitY=0.25;exitDx=0;exitDy=0;entryX=0;entryY=0.75;entryDx=0;entryDy=0;" edge="1" parent="1" source="lZczdP_Lf2VxQvJHOiX0-16" target="lZczdP_Lf2VxQvJHOiX0-17">
          <mxGeometry width="100" height="100" relative="1" as="geometry">
            <mxPoint x="-270" y="125" as="sourcePoint" />
            <mxPoint x="-210" y="243" as="targetPoint" />
          </mxGeometry>
        </mxCell>
        <mxCell id="lZczdP_Lf2VxQvJHOiX0-38" value="Specifications" style="swimlane;" vertex="1" parent="1">
          <mxGeometry x="240" y="117.5" width="130" height="80" as="geometry" />
        </mxCell>
        <mxCell id="lZczdP_Lf2VxQvJHOiX0-39" value="specification_id&lt;br&gt;name&lt;br&gt;" style="text;html=1;strokeColor=none;fillColor=none;align=left;verticalAlign=top;whiteSpace=wrap;rounded=0;" vertex="1" parent="lZczdP_Lf2VxQvJHOiX0-38">
          <mxGeometry y="30" width="120" height="50" as="geometry" />
        </mxCell>
        <mxCell id="lZczdP_Lf2VxQvJHOiX0-41" value="" style="edgeStyle=entityRelationEdgeStyle;fontSize=12;html=1;endArrow=ERoneToMany;rounded=0;exitX=0;exitY=0.5;exitDx=0;exitDy=0;entryX=1;entryY=0.5;entryDx=0;entryDy=0;" edge="1" parent="1" source="lZczdP_Lf2VxQvJHOiX0-17" target="lZczdP_Lf2VxQvJHOiX0-14">
          <mxGeometry width="100" height="100" relative="1" as="geometry">
            <mxPoint x="-550" y="290" as="sourcePoint" />
            <mxPoint x="-350" y="250" as="targetPoint" />
          </mxGeometry>
        </mxCell>
        <mxCell id="lZczdP_Lf2VxQvJHOiX0-43" value="CategoryCars" style="swimlane;" vertex="1" parent="1">
          <mxGeometry x="-380" y="450" width="110" height="80" as="geometry">
            <mxRectangle x="-500" y="450" width="120" height="30" as="alternateBounds" />
          </mxGeometry>
        </mxCell>
        <mxCell id="lZczdP_Lf2VxQvJHOiX0-44" value="category_id&lt;br&gt;name" style="text;html=1;strokeColor=none;fillColor=none;align=left;verticalAlign=top;whiteSpace=wrap;rounded=0;" vertex="1" parent="lZczdP_Lf2VxQvJHOiX0-43">
          <mxGeometry x="10" y="30" width="100" height="50" as="geometry" />
        </mxCell>
        <mxCell id="lZczdP_Lf2VxQvJHOiX0-49" value="" style="edgeStyle=orthogonalEdgeStyle;fontSize=12;html=1;endArrow=ERoneToMany;rounded=0;entryX=1.008;entryY=0.921;entryDx=0;entryDy=0;exitX=1;exitY=0.25;exitDx=0;exitDy=0;entryPerimeter=0;" edge="1" parent="1" source="lZczdP_Lf2VxQvJHOiX0-44" target="lZczdP_Lf2VxQvJHOiX0-14">
          <mxGeometry width="100" height="100" relative="1" as="geometry">
            <mxPoint x="-390" y="473" as="sourcePoint" />
            <mxPoint x="-180" y="515" as="targetPoint" />
          </mxGeometry>
        </mxCell>
        <mxCell id="lZczdP_Lf2VxQvJHOiX0-55" value="Discounts" style="swimlane;" vertex="1" parent="1">
          <mxGeometry x="-525" y="590" width="100" height="130" as="geometry" />
        </mxCell>
        <mxCell id="lZczdP_Lf2VxQvJHOiX0-56" value="discount_id&lt;br&gt;category_id&lt;br&gt;percentage&lt;br&gt;start_date&lt;br&gt;end_date" style="text;html=1;strokeColor=none;fillColor=none;align=left;verticalAlign=top;whiteSpace=wrap;rounded=0;" vertex="1" parent="lZczdP_Lf2VxQvJHOiX0-55">
          <mxGeometry x="10" y="30" width="90" height="80" as="geometry" />
        </mxCell>
        <mxCell id="lZczdP_Lf2VxQvJHOiX0-57" value="" style="edgeStyle=orthogonalEdgeStyle;fontSize=12;html=1;endArrow=ERoneToMany;rounded=0;exitX=0;exitY=0.5;exitDx=0;exitDy=0;entryX=1;entryY=0.25;entryDx=0;entryDy=0;" edge="1" parent="1" source="lZczdP_Lf2VxQvJHOiX0-43" target="lZczdP_Lf2VxQvJHOiX0-56">
          <mxGeometry width="100" height="100" relative="1" as="geometry">
            <mxPoint x="-550" y="430" as="sourcePoint" />
            <mxPoint x="-450" y="330" as="targetPoint" />
          </mxGeometry>
        </mxCell>
        <mxCell id="lZczdP_Lf2VxQvJHOiX0-60" value="Rentings" style="swimlane;" vertex="1" parent="1">
          <mxGeometry x="-780" y="430" width="100" height="160" as="geometry" />
        </mxCell>
        <mxCell id="lZczdP_Lf2VxQvJHOiX0-61" value="rent_id&lt;br&gt;user_id&lt;br&gt;car_id&lt;br&gt;start_date&lt;br&gt;end_date&lt;br&gt;sum_cost&lt;br&gt;rent_adress&lt;br&gt;is_paid" style="text;html=1;strokeColor=none;fillColor=none;align=left;verticalAlign=top;whiteSpace=wrap;rounded=0;" vertex="1" parent="lZczdP_Lf2VxQvJHOiX0-60">
          <mxGeometry x="10" y="20" width="90" height="120" as="geometry" />
        </mxCell>
        <mxCell id="lZczdP_Lf2VxQvJHOiX0-63" value="" style="edgeStyle=orthogonalEdgeStyle;fontSize=12;html=1;endArrow=ERoneToMany;rounded=0;exitX=1;exitY=0.25;exitDx=0;exitDy=0;entryX=1;entryY=0.25;entryDx=0;entryDy=0;" edge="1" parent="1" source="lZczdP_Lf2VxQvJHOiX0-6" target="lZczdP_Lf2VxQvJHOiX0-61">
          <mxGeometry width="100" height="100" relative="1" as="geometry">
            <mxPoint x="-600" y="490" as="sourcePoint" />
            <mxPoint x="-590" y="450" as="targetPoint" />
          </mxGeometry>
        </mxCell>
        <mxCell id="lZczdP_Lf2VxQvJHOiX0-64" value="" style="edgeStyle=entityRelationEdgeStyle;fontSize=12;html=1;endArrow=ERoneToMany;rounded=0;exitX=0;exitY=0.5;exitDx=0;exitDy=0;entryX=1.011;entryY=0.42;entryDx=0;entryDy=0;entryPerimeter=0;" edge="1" parent="1" source="lZczdP_Lf2VxQvJHOiX0-13" target="lZczdP_Lf2VxQvJHOiX0-61">
          <mxGeometry width="100" height="100" relative="1" as="geometry">
            <mxPoint x="-620" y="500" as="sourcePoint" />
            <mxPoint x="-520" y="400" as="targetPoint" />
          </mxGeometry>
        </mxCell>
        <mxCell id="lZczdP_Lf2VxQvJHOiX0-66" value="RentingPlace" style="swimlane;" vertex="1" parent="1">
          <mxGeometry x="-540" y="110" width="100" height="110" as="geometry" />
        </mxCell>
        <mxCell id="lZczdP_Lf2VxQvJHOiX0-67" value="rent_place_id&lt;br&gt;name&lt;br&gt;adress&lt;br&gt;phone" style="text;html=1;strokeColor=none;fillColor=none;align=left;verticalAlign=top;whiteSpace=wrap;rounded=0;" vertex="1" parent="lZczdP_Lf2VxQvJHOiX0-66">
          <mxGeometry x="10" y="30" width="90" height="70" as="geometry" />
        </mxCell>
        <mxCell id="lZczdP_Lf2VxQvJHOiX0-69" value="Prices" style="swimlane;" vertex="1" parent="1">
          <mxGeometry x="-640" y="241.25" width="100" height="140" as="geometry" />
        </mxCell>
        <mxCell id="lZczdP_Lf2VxQvJHOiX0-70" value="price_id&lt;br&gt;car_id&lt;br&gt;price_per_day&lt;br&gt;price_per_month&lt;br&gt;created_at&lt;br&gt;updated_at" style="text;html=1;strokeColor=none;fillColor=none;align=left;verticalAlign=top;whiteSpace=wrap;rounded=0;" vertex="1" parent="lZczdP_Lf2VxQvJHOiX0-69">
          <mxGeometry x="10" y="30" width="90" height="110" as="geometry" />
        </mxCell>
        <mxCell id="lZczdP_Lf2VxQvJHOiX0-72" value="" style="edgeStyle=orthogonalEdgeStyle;fontSize=12;html=1;endArrow=ERoneToMany;rounded=0;exitX=0;exitY=0.25;exitDx=0;exitDy=0;" edge="1" parent="1" source="lZczdP_Lf2VxQvJHOiX0-14" target="lZczdP_Lf2VxQvJHOiX0-70">
          <mxGeometry width="100" height="100" relative="1" as="geometry">
            <mxPoint x="-560" y="430" as="sourcePoint" />
            <mxPoint x="-530" y="307" as="targetPoint" />
            <Array as="points">
              <mxPoint x="-375" y="302" />
            </Array>
          </mxGeometry>
        </mxCell>
        <mxCell id="lZczdP_Lf2VxQvJHOiX0-76" value="" style="edgeStyle=entityRelationEdgeStyle;fontSize=12;html=1;endArrow=ERoneToMany;rounded=0;labelBackgroundColor=default;strokeColor=default;fontFamily=Helvetica;fontColor=default;shape=connector;exitX=1;exitY=0.25;exitDx=0;exitDy=0;entryX=0;entryY=0.75;entryDx=0;entryDy=0;" edge="1" parent="1" source="lZczdP_Lf2VxQvJHOiX0-67" target="lZczdP_Lf2VxQvJHOiX0-14">
          <mxGeometry width="100" height="100" relative="1" as="geometry">
            <mxPoint x="-650" y="630" as="sourcePoint" />
            <mxPoint x="-550" y="530" as="targetPoint" />
          </mxGeometry>
        </mxCell>
        <mxCell id="lZczdP_Lf2VxQvJHOiX0-81" value="UserUseCases" style="swimlane;" vertex="1" parent="1">
          <mxGeometry x="-1040" y="190" width="100" height="80" as="geometry" />
        </mxCell>
        <mxCell id="lZczdP_Lf2VxQvJHOiX0-82" value="user_id&lt;br&gt;usecase_id" style="text;html=1;strokeColor=none;fillColor=none;align=left;verticalAlign=top;whiteSpace=wrap;rounded=0;" vertex="1" parent="lZczdP_Lf2VxQvJHOiX0-81">
          <mxGeometry x="10" y="30" width="70" height="50" as="geometry" />
        </mxCell>
        <mxCell id="lZczdP_Lf2VxQvJHOiX0-83" value="" style="edgeStyle=entityRelationEdgeStyle;fontSize=12;html=1;endArrow=ERoneToMany;rounded=0;labelBackgroundColor=default;strokeColor=default;fontFamily=Helvetica;fontColor=default;shape=connector;exitX=0;exitY=0.118;exitDx=0;exitDy=0;exitPerimeter=0;entryX=1;entryY=0.5;entryDx=0;entryDy=0;" edge="1" parent="1" source="lZczdP_Lf2VxQvJHOiX0-12" target="lZczdP_Lf2VxQvJHOiX0-81">
          <mxGeometry width="100" height="100" relative="1" as="geometry">
            <mxPoint x="-940" y="235" as="sourcePoint" />
            <mxPoint x="-840" y="135" as="targetPoint" />
          </mxGeometry>
        </mxCell>
        <mxCell id="lZczdP_Lf2VxQvJHOiX0-84" value="SpecificationValues" style="swimlane;" vertex="1" parent="1">
          <mxGeometry x="290" y="410" width="130" height="90" as="geometry" />
        </mxCell>
        <mxCell id="lZczdP_Lf2VxQvJHOiX0-85" value="specification_value_id&lt;br&gt;value" style="text;html=1;strokeColor=none;fillColor=none;align=left;verticalAlign=top;whiteSpace=wrap;rounded=0;" vertex="1" parent="lZczdP_Lf2VxQvJHOiX0-84">
          <mxGeometry y="30" width="130" height="60" as="geometry" />
        </mxCell>
        <mxCell id="lZczdP_Lf2VxQvJHOiX0-90" value="SpecSpecValues" style="swimlane;" vertex="1" parent="1">
          <mxGeometry x="10" y="280" width="150" height="100" as="geometry" />
        </mxCell>
        <mxCell id="lZczdP_Lf2VxQvJHOiX0-91" value="specspecvalueId&lt;br&gt;specification_id&lt;br&gt;specification_value_id" style="text;html=1;strokeColor=none;fillColor=none;align=left;verticalAlign=top;whiteSpace=wrap;rounded=0;" vertex="1" parent="lZczdP_Lf2VxQvJHOiX0-90">
          <mxGeometry x="10" y="30" width="140" height="60" as="geometry" />
        </mxCell>
        <mxCell id="lZczdP_Lf2VxQvJHOiX0-93" value="" style="edgeStyle=orthogonalEdgeStyle;fontSize=12;html=1;endArrow=ERoneToMany;rounded=0;labelBackgroundColor=default;strokeColor=default;fontFamily=Helvetica;fontColor=default;shape=connector;exitX=0;exitY=0.25;exitDx=0;exitDy=0;entryX=1;entryY=0.25;entryDx=0;entryDy=0;" edge="1" parent="1" source="lZczdP_Lf2VxQvJHOiX0-39" target="lZczdP_Lf2VxQvJHOiX0-91">
          <mxGeometry width="100" height="100" relative="1" as="geometry">
            <mxPoint x="-230" y="391.25" as="sourcePoint" />
            <mxPoint x="-130" y="291.25" as="targetPoint" />
          </mxGeometry>
        </mxCell>
        <mxCell id="lZczdP_Lf2VxQvJHOiX0-94" value="" style="edgeStyle=orthogonalEdgeStyle;fontSize=12;html=1;endArrow=ERoneToMany;rounded=0;labelBackgroundColor=default;strokeColor=default;fontFamily=Helvetica;fontColor=default;shape=connector;exitX=0;exitY=0.25;exitDx=0;exitDy=0;entryX=1;entryY=0.5;entryDx=0;entryDy=0;" edge="1" parent="1" source="lZczdP_Lf2VxQvJHOiX0-85" target="lZczdP_Lf2VxQvJHOiX0-91">
          <mxGeometry width="100" height="100" relative="1" as="geometry">
            <mxPoint x="-60" y="211.25" as="sourcePoint" />
            <mxPoint x="40" y="111.25" as="targetPoint" />
          </mxGeometry>
        </mxCell>
        <mxCell id="lZczdP_Lf2VxQvJHOiX0-96" value="UserUseCases" style="swimlane;" vertex="1" parent="1">
          <mxGeometry x="-1050" y="390" width="100" height="80" as="geometry" />
        </mxCell>
        <mxCell id="lZczdP_Lf2VxQvJHOiX0-97" value="use_case_id&lt;br&gt;" style="text;html=1;strokeColor=none;fillColor=none;align=left;verticalAlign=top;whiteSpace=wrap;rounded=0;" vertex="1" parent="lZczdP_Lf2VxQvJHOiX0-96">
          <mxGeometry y="30" width="80" height="50" as="geometry" />
        </mxCell>
        <mxCell id="lZczdP_Lf2VxQvJHOiX0-98" value="" style="edgeStyle=orthogonalEdgeStyle;fontSize=12;html=1;endArrow=ERoneToMany;rounded=0;labelBackgroundColor=default;strokeColor=default;fontFamily=Helvetica;fontColor=default;shape=connector;entryX=0;entryY=0.75;entryDx=0;entryDy=0;exitX=0;exitY=0.25;exitDx=0;exitDy=0;" edge="1" parent="1" source="lZczdP_Lf2VxQvJHOiX0-97" target="lZczdP_Lf2VxQvJHOiX0-81">
          <mxGeometry width="100" height="100" relative="1" as="geometry">
            <mxPoint x="-1050" y="433" as="sourcePoint" />
            <mxPoint x="-920" y="360" as="targetPoint" />
            <Array as="points">
              <mxPoint x="-1090" y="433" />
              <mxPoint x="-1090" y="250" />
            </Array>
          </mxGeometry>
        </mxCell>
        <mxCell id="lZczdP_Lf2VxQvJHOiX0-100" value="RegistratoinPlates" style="swimlane;startSize=23;" vertex="1" parent="1">
          <mxGeometry x="30" y="610" width="170" height="78.75" as="geometry" />
        </mxCell>
        <mxCell id="lZczdP_Lf2VxQvJHOiX0-101" value="registration_plate_id&lt;br&gt;plate" style="text;html=1;strokeColor=none;fillColor=none;align=left;verticalAlign=top;whiteSpace=wrap;rounded=0;" vertex="1" parent="lZczdP_Lf2VxQvJHOiX0-100">
          <mxGeometry x="10" y="30" width="150" height="40" as="geometry" />
        </mxCell>
        <mxCell id="lZczdP_Lf2VxQvJHOiX0-102" value="Registration" style="swimlane;startSize=23;" vertex="1" parent="1">
          <mxGeometry x="-160" y="470" width="140" height="135" as="geometry" />
        </mxCell>
        <mxCell id="lZczdP_Lf2VxQvJHOiX0-103" value="registration_id&lt;br&gt;registration_plate_id&lt;br&gt;start_of_registration&lt;br&gt;end_of_registration&lt;br&gt;car_id" style="text;html=1;strokeColor=none;fillColor=none;align=left;verticalAlign=top;whiteSpace=wrap;rounded=0;" vertex="1" parent="lZczdP_Lf2VxQvJHOiX0-102">
          <mxGeometry x="10" y="30" width="130" height="100" as="geometry" />
        </mxCell>
        <mxCell id="lZczdP_Lf2VxQvJHOiX0-105" value="" style="edgeStyle=entityRelationEdgeStyle;fontSize=12;html=1;endArrow=ERoneToMany;rounded=0;labelBackgroundColor=default;strokeColor=default;fontFamily=Helvetica;fontColor=default;shape=connector;exitX=1;exitY=0.25;exitDx=0;exitDy=0;entryX=0;entryY=0.75;entryDx=0;entryDy=0;" edge="1" parent="1" source="lZczdP_Lf2VxQvJHOiX0-14" target="lZczdP_Lf2VxQvJHOiX0-102">
          <mxGeometry width="100" height="100" relative="1" as="geometry">
            <mxPoint x="-230" y="460" as="sourcePoint" />
            <mxPoint x="-130" y="360" as="targetPoint" />
          </mxGeometry>
        </mxCell>
        <mxCell id="lZczdP_Lf2VxQvJHOiX0-106" value="" style="edgeStyle=orthogonalEdgeStyle;fontSize=12;html=1;endArrow=ERoneToMany;rounded=0;labelBackgroundColor=default;strokeColor=default;fontFamily=Helvetica;fontColor=default;shape=connector;exitX=0;exitY=0.75;exitDx=0;exitDy=0;entryX=1;entryY=0.25;entryDx=0;entryDy=0;" edge="1" parent="1" source="lZczdP_Lf2VxQvJHOiX0-100" target="lZczdP_Lf2VxQvJHOiX0-103">
          <mxGeometry width="100" height="100" relative="1" as="geometry">
            <mxPoint x="-55" y="660" as="sourcePoint" />
            <mxPoint x="45" y="560" as="targetPoint" />
          </mxGeometry>
        </mxCell>
        <mxCell id="lZczdP_Lf2VxQvJHOiX0-107" value="SpecSpecCars" style="swimlane;" vertex="1" parent="1">
          <mxGeometry x="-185" y="280" width="130" height="100" as="geometry" />
        </mxCell>
        <mxCell id="lZczdP_Lf2VxQvJHOiX0-108" value="specSpecValued&lt;br&gt;car_id" style="text;html=1;strokeColor=none;fillColor=none;align=left;verticalAlign=top;whiteSpace=wrap;rounded=0;" vertex="1" parent="lZczdP_Lf2VxQvJHOiX0-107">
          <mxGeometry y="30" width="130" height="50" as="geometry" />
        </mxCell>
        <mxCell id="lZczdP_Lf2VxQvJHOiX0-109" value="" style="edgeStyle=entityRelationEdgeStyle;fontSize=12;html=1;endArrow=ERoneToMany;rounded=0;labelBackgroundColor=default;strokeColor=default;fontFamily=Helvetica;fontColor=default;shape=connector;entryX=1;entryY=0.25;entryDx=0;entryDy=0;exitX=0;exitY=0.25;exitDx=0;exitDy=0;" edge="1" parent="1" source="lZczdP_Lf2VxQvJHOiX0-91" target="lZczdP_Lf2VxQvJHOiX0-108">
          <mxGeometry width="100" height="100" relative="1" as="geometry">
            <mxPoint x="-10" y="280" as="sourcePoint" />
            <mxPoint x="-30" y="340" as="targetPoint" />
          </mxGeometry>
        </mxCell>
        <mxCell id="lZczdP_Lf2VxQvJHOiX0-110" value="" style="edgeStyle=entityRelationEdgeStyle;fontSize=12;html=1;endArrow=ERoneToMany;rounded=0;labelBackgroundColor=default;strokeColor=default;fontFamily=Helvetica;fontColor=default;shape=connector;exitX=1;exitY=0.25;exitDx=0;exitDy=0;entryX=0;entryY=0.5;entryDx=0;entryDy=0;" edge="1" parent="1" source="lZczdP_Lf2VxQvJHOiX0-14" target="lZczdP_Lf2VxQvJHOiX0-108">
          <mxGeometry width="100" height="100" relative="1" as="geometry">
            <mxPoint x="-260" y="280" as="sourcePoint" />
            <mxPoint x="-180" y="340" as="targetPoint" />
          </mxGeometry>
        </mxCell>
        <mxCell id="lZczdP_Lf2VxQvJHOiX0-112" value="AuditLog" style="swimlane;" vertex="1" parent="1">
          <mxGeometry x="-950" y="570" width="100" height="130" as="geometry" />
        </mxCell>
        <mxCell id="lZczdP_Lf2VxQvJHOiX0-113" value="audit_log_id&lt;br&gt;user_id&lt;br&gt;use_case_id&lt;br&gt;description&lt;br&gt;IsAuthorized" style="text;html=1;strokeColor=none;fillColor=none;align=left;verticalAlign=top;whiteSpace=wrap;rounded=0;" vertex="1" parent="lZczdP_Lf2VxQvJHOiX0-112">
          <mxGeometry y="30" width="100" height="80" as="geometry" />
        </mxCell>
        <mxCell id="lZczdP_Lf2VxQvJHOiX0-114" value="" style="edgeStyle=orthogonalEdgeStyle;fontSize=12;html=1;endArrow=ERoneToMany;rounded=0;labelBackgroundColor=default;strokeColor=default;fontFamily=Helvetica;fontColor=default;shape=connector;entryX=1;entryY=0.25;entryDx=0;entryDy=0;entryPerimeter=0;exitX=-0.025;exitY=0.131;exitDx=0;exitDy=0;exitPerimeter=0;" edge="1" parent="1" source="lZczdP_Lf2VxQvJHOiX0-12" target="lZczdP_Lf2VxQvJHOiX0-113">
          <mxGeometry width="100" height="100" relative="1" as="geometry">
            <mxPoint x="-930" y="470" as="sourcePoint" />
            <mxPoint x="-840" y="620" as="targetPoint" />
            <Array as="points">
              <mxPoint x="-832" y="620" />
            </Array>
          </mxGeometry>
        </mxCell>
      </root>
    </mxGraphModel>
  </diagram>
</mxfile>
